<?xml version="1.0" encoding="utf-8"?>
<svg xmlns="http://www.w3.org/2000/svg" viewBox="0 146.568 640 622.726" preserveAspectRatio="xMidYMid meet">
<g>
	<path id="path1200-6-9-6" d="M502.405,471.432l2.197,8.061
		c1.959,7.248,3.354,13.002,4.312,17.191c6.746,30.643,12.437,38.68,27.343,38.68c8.482,0,15.567-4.746,17.726-11.818l3.202-10.773
		c0.747-2.475,2.592-3.889,5.095-3.889c5.854,0,8.968,6.393,9.403,19.449c0.148,4.979,1.257,13.738,3.19,26.307
		c1.47,9.016,2.154,17.326,2.154,24.807c0,5.453-0.653,8.635-3.21,15.41l1.056,6.445c1.814,10.596,2.242,14.744,2.242,19.707
		c0,23.027-1.081,29.812-6.535,38.789c2.235,8.775,2.838,12.908,2.838,19.207c0,4.064-0.553,9.859-1.735,18.879l-2.177,16.127
		l0.562,9.646c1.437,3.506,2.131,5.779,2.131,6.418c0,1.537-0.952,2.693-2.131,2.693l-10.722-4.314l-11.807-6.389
		c-3.808-2.109-6.522-4.162-12.335-9.656c-10.365,9.193-11.874,10.021-24.184,13.408c-17.775,4.91-24.372,7.129-27.882,9.656
		c-3.462,2.434-6.038,3.756-7.438,3.756c-4.162,0-7.08-8.08-7.08-19.898c0-17.193,1.027-26.031,3.774-32.709
		c-10.459-3.553-15.728-4.828-19.531-4.828c-1.434,0-2.284,0.121-7.832,1.072l-2.408,0.203c-1.565,0-2.463-1.916-2.463-5.113
		c0-5.25,3.686-15.75,8.638-24.617c6.71-11.969,17.812-21.926,26.316-23.623l19.306-3.699c11.447-2.246,18.27-8.352,18.27-16.324
		c0-7.711-5.01-12.771-16.688-16.961l-22.526-8.064c-7.586-2.705-14.776-6.105-21.486-10.213c-5.658-3.48-9.652-5.766-11.778-6.99
		c-1.961-1.033-3.98-1.592-5.857-1.592c-4.773,0-7.671,3.508-7.671,9.193c0,9.098,7.064,16.619,15.581,16.619
		c1.901,0,3.732-0.447,5.438-1.113c2.465-1.047,4.129-1.631,4.944-1.631c2.443,0,4.194,2.379,4.194,5.752
		c0,9.547-5.97,26.059-12.332,33.947l-6.456,8.105l-4.828,6.434c-1.813,13.805-15.322,33.607-28.95,42.381
		c-3.315,2.08-5.323,3.537-5.957,4.283c-0.455,0.504-1.851,3.047-4.269,7.494c-1.124,2.082-4.722,6.367-10.772,12.922
		c-4.509,4.844-8.979,9.018-13.386,12.32c-6.004,4.545-9.602,7.822-10.715,9.672l-5.389,9.139c-1.101,1.85-2.452,2.764-4.186,2.764
		c-4.822,0-9.229-4.992-11.9-13.479c-1.968-6.297-3.713-8.096-7.78-8.096c-2.103,0-5.239,0.559-9.394,1.646l-7.498,0.994h-18.815
		c-10.141,0-23.723,2.463-30.062,5.455c-2.417,1.129-4.286,1.688-5.526,1.688c-2.765,0-4.176-2.791-4.176-8.203
		c0-17.016,13.102-42.844,30.133-59.518c-2.536-9.875-7.711-16.482-14.492-18.252c-6.093-1.646-9.306-2.529-9.665-2.693
		c-0.993-0.518-1.625-1.494-1.625-2.557c0-3.43,3.813-6.787,12.367-10.84c15.235-7.195,19.699-8.594,28.213-8.594
		c9.722,0,17.929,3.289,28.104,11.258c14.544,11.332,18.543,13.48,25.556,13.48c11.457,0,22.428-10.459,22.428-21.49
		c0-7.412-4.103-15.641-14.167-28.508c-14.294-18.238-19.333-30.139-19.333-45.588c0-10.379,2.06-16.051,11.295-31.078
		c1.442-2.436,2.246-4.422,2.246-5.768c0-2.898-4.896-5.592-10.297-5.592c-5.734,0-12.881,2.096-22.537,6.502
		c-16.144,7.414-25.76,14.336-25.76,18.51c0,1.676,0.984,3.389,2.678,4.557l5.41,3.756c0.655,0.488,1.109,1.307,1.109,2.256
		c0,0.912-1.021,2.777-2.244,4.189c-1.05,1.199-4.636,5.85-10.734,13.93c-7.485,9.982-14.637,17.475-22.459,23.609
		c-2.909,2.219-4.7,4.055-5.447,5.385l-4.259,8.094c-3.588,6.707-14.178,17.777-23.106,24.129c-4.025,2.842-6.541,4.84-7.488,5.887
		c-1.103,1.213-2.707,3.729-4.844,7.521c-5.484,9.848-14.107,21.939-19.81,27.896l-14.5,15.027
		c-4.172,4.26-10.005,16.689-15.574,33.229c-4.409,13.016-7.234,18.877-9.229,18.877c-0.891,0-2.407-1.223-4.175-3.32
		c-10.425-11.883-19.775-19.322-24.35-19.322c-1.188,0-3.294,0.99-6.269,2.719c-4.119,2.475-8.994,4.324-14.459,5.398l-19.332,3.699
		c-16.138,3.17-22.601,6.596-30.041,16.117c-1.875,2.393-3.447,3.729-4.275,3.729c-1.899,0-3.306-2.75-3.306-6.504l0.546-4.719
		c0.153-0.516,1.05-5.346,2.739-14.482c2.767-15.277,6.667-27.938,10.727-34.887l9.678-16.648c1.72-3.008,2.677-6.053,2.677-8.676
		c0-12.35-11.531-22.402-29.004-25.162c-3.547-0.52-5.39-1.84-5.39-3.877c0-2.477,4.206-7.197,10.784-12.188
		c11.397-8.609,23.913-13.953,32.793-13.953c5.957,0,13.976,2.135,24.616,6.391l11.792,4.842c4.379,1.836,8.459,2.775,11.971,2.775
		c12.488,0,24.585-11.398,39.548-37.035c6.749-11.709,9.671-20.02,9.671-27.623c0-13.629-6.312-21.791-16.909-21.791
		c-8.291,0-16.25,3.537-22.814,10.135c-5.854,5.945-8.903,11.875-8.903,17.164l0.289,5.441l0.228,2.869
		c0,4.326-1.466,6.27-4.674,6.27c-4.048,0-8.795-3.945-18.051-15.055c-3.838-4.625-8.853-10.475-15.035-17.695
		c-16.322-19.07-19.702-26.713-20.397-46.176c-18.209-23.217-22.708-36.094-22.708-49.541l0.699-11.08
		c-13.046-15.668-15.575-21.703-15.575-37.145c0-6.949,0.411-8.762,3.248-14.338c-6.417-9.421-8.465-13.631-10.181-20.924
		l-2.688-11.319c-1.86-7.665-4.681-14.22-8.593-19.851c-4.832-6.912-5.403-7.933-5.403-9.956c0-5.606,5.371-9.197,18.828-12.547
		l4.284-1.097c-0.74-5.212-1.09-9.227-1.09-11.903c0-3.101,0.385-6.144,1.619-12.788l3.754-19.882
		c1.438-7.724,2.194-13.631,2.194-17.6c0-4.583-0.715-8.28-3.266-16.697c-1.65-5.483-3.484-9.625-5.359-12.362
		c-2.07-2.959-3.232-5.447-3.232-7.068c0-1.841,1.84-3.242,4.26-3.242c1.311,0,3.581,0.682,5.403,1.741
		c18.111,9.875,37.93,25.556,52.042,41.325c12.137,13.469,16.039,24.723,18.806,54.761c16.459,12.191,22.587,23.294,22.587,40.716
		c0,10.329-3.373,20.312-10.784,31.694c-6.567,10.053-10.129,15.575-10.72,16.655c-3.203,5.361-4.866,11.637-4.866,18.154
		c0,9.678,2.938,18.809,10.214,31.703c8.008,14.223,15.193,20.424,23.74,20.424c14.06,0,26.806-24.311,26.806-51.08l-0.104-5.279
		v-14.493l1.622-12.841l1.062-15.568l1.044-12.918l0.435-7.175c0-5.281-1.1-6.81-17.609-24.463
		c-18.2-19.521-26.82-35.981-26.82-51.258c0-14.444,12.403-26.511,27.291-26.511c3.122,0,5.91,0.534,11.344,2.1v-6.422l0.552-11.316
		l3.214-13.912c2.571-11.135,3.754-13.156,7.587-13.156l2.631,0.829l9.684,8.559l11.75,7.535l3.249,3.21
		c0.763-6.71,1.356-8.034,6.967-15.06c2.784-3.473,5.291-6.89,7.49-10.166l5.363-8.026l3.243-4.844
		c2.161-3.228,3.081-4.077,4.462-4.077c1.46,0,2.463,1.856,4.128,7.856c0.694,2.421,2.372,4.856,4.812,6.965l7.007,5.885
		c5.651,4.791,9.419,11.855,11.778,22.012c4.249-5.299,6.306-7.197,10.725-9.684l8.601-4.815c3.17-1.822,5.114-2.722,5.689-2.722
		c0.55,0,1.494,1.293,2.379,3.224c1.249,2.812,2.658,5.535,4.315,8.062c6.922,11.124,7.491,12.708,7.491,20.248l-0.028,4.457v6.441
		c17.425,4.799,24.195,14.17,24.195,33.437c0,14.428-6.592,29.319-20.433,45.967c-9.157,11.028-10.728,14.45-10.728,22.755
		c0,37.854,28.517,60.772,76.732,61.489l35.409,0.541c23.156,0.357,37.281,2.709,58.505,9.646
		c24.836,8.154,32.927,10.23,40.477,10.23c5.463,0,9.991-3.068,9.991-6.697c0-7.766-13.003-13.764-56.365-26.053
		c-88.384-24.969-126.112-60.732-126.112-119.292c0-45.358,37.842-80.366,86.802-80.366c15.423,0,39.523,4.114,53.272,9.132
		l21.966,8.063c4.031,1.482,7.931,2.264,11.534,2.264c7.604,0,10.46-4.75,11.568-18.906c0.49-6.313,2.535-9.101,6.548-9.101
		c5.64,0,16.625,8.829,24.541,19.862c8.205,11.307,14.005,26.245,14.005,35.971c0,11.449-5.978,20.137-18.824,27.356
		c-12.023,18.352-26.834,26.802-46.769,26.802c-15.288,0-41.229-10.339-73.917-29.485c-12.916-7.527-18.565-9.636-25.7-9.636
		c-9.662,0-15.872,5.394-15.872,13.919c0,7.771,5.72,12.587,21.673,18.225c25.398,9.059,30.854,12.012,38.116,20.968
		c27.346,4.731,39.216,9.474,56.366,22.506c48.978,15.71,76.209,45.973,76.209,84.683c0,35.277-23.884,60.734-57.15,60.734
		c-8.85,0-13.433-0.521-26.104-3.223"/>
	<path id="path1210-5-4-5" fill="#FE0000" d="M349.498,723.696
		c3.006-6.678,4.366-8.502,10.74-13.996c15.006-12.838,21.997-22.428,21.997-30.031v-11.846c0-6.854,1.157-9.098,4.729-9.098
		c1.615,0,2.91,0.609,3.345,1.631l2.677,6.379c0.585,1.482,2.354,2.408,4.51,2.408c3.842,0,6.565-2.734,13.181-13.629
		c2.82-4.611,3.938-7.604,3.938-10.635c0-1.932-0.444-3.957-1.296-6.037c-0.391-1.035-1.629-3.852-3.731-8.543
		c-1.21-2.789-2.203-6.475-2.203-8.406c0-3.537,1.803-5.59,4.814-5.59c1.605,0,3.039,0.625,3.882,1.66l4.252,5.344
		c0.96,1.129,1.197,1.85,2.823,1.85c1.981,0,5.5-1.85,6.851-4.502l4.289-8.596c1.105-2.119,1.655-3.863,1.655-4.879
		c0-1.84-1.724-3.648-4.352-4.789l-7.508-3.266c-8.805-3.74-16.114-18.852-16.114-33.254c0-1.592,0.582-3.959,1.61-6.963l3.25-9.129
		c1.062-3.002,1.6-6.037,1.6-8.92c0-5.264-1.635-10.336-5.354-16.281c-3.707-6.023-5.866-9.738-6.468-11.273
		c-3.075-8-4.957-10.637-7.595-10.637c-1.904,0-3.699,0.693-6.86,2.557l-5.361,3.264l-7.554,8.598l-7.521,3.727
		c-4.494,2.27-8.772,11.953-8.772,20.088c0,11.562,2.544,17.885,20.047,49.182c7.42,13.23,10.922,23.039,10.922,30.535
		c0,21.84-22.293,39.82-58.661,47.205c-43.485,8.963-52.959,16.105-57.964,44.053c7.521-3.875,10.508-4.432,23.786-4.432
		l7.866,0.096h1.247c7.178,0,8.144-0.504,12.738-6.979c5.25-7.412,10.473-11.807,17.699-14.977l8.583-3.791l6.976-3.756l2.149-0.545
		c1.931,0,2.98,0.777,2.98,2.258c0,1.811-1.774,4.898-5.129,9.061c-5.2,6.268-8.2,12.742-8.2,17.666
		C343.989,713.645,345.181,717.278,349.498,723.696"/>
	<path id="path1204-2-0-2" fill="#FE0000" d="M115.552,338.36L115,346.957l-0.158,5.24
		c0,8.712,1.36,12.476,4.626,12.476c3.564,0,9.129-6.667,11.643-13.976c1.532-4.538,2.748-10.863,2.748-14.531
		c0-2.594-0.668-4.983-2.748-10.166c-2.421-5.873-4.899-8.588-7.887-8.588C118.62,317.412,116.499,323.315,115.552,338.36"/>
	<path id="path1206-9-3-9" fill="#FE0000" d="M78.506,239.089l7.538,7.504
		c10.971,10.987,18.496,33.344,18.496,54.95l-0.262,8.907l-1.605,25.207l-0.55,21.106c0,70.119,20.405,117.927,50.394,117.927
		c7.524,0,16.784-6.924,23.133-17.203c1.387-2.229,3.182-3.875,4.295-3.875c1.675,0,2.535,1.439,2.668,4.432l1.103,11.807
		l1.019,10.16c0.56,4.787,1.063,8.553,1.638,11.301c1.053,5.182,1.622,8.705,1.622,10.527c0,5.414-1.097,5.998-13.966,7.727
		c-4.82,0.596-9.949,2.623-15.018,5.889c-8.322,5.359-13.168,9.059-13.935,10.715l-5.925,12.406
		c-0.781,1.551-2.089,2.652-3.417,2.652c-3.137,0-7.322-4.762-13.247-15.059c-5.439-9.438-7.876-14.891-7.876-17.447
		c0-1.742,1.345-2.42,4.668-2.42h1.1l6.433,0.543l4.814-0.543l4.334-0.492c1.843-0.422,3.19-2.025,3.19-3.971
		c0-1.307-0.86-2.516-2.154-2.992l-24.159-10.242c-5.79-2.447-11.991-8.691-17.687-17.666c-6.182-9.912-9.792-18.506-9.792-23.377
		c0-3.826,1.651-6.277,4.206-6.277c1.022,0,2.409,0.357,3.957,1.211c2.677,1.277,5.15,2.156,6.269,2.156
		c0.909,0,1.93-0.412,2.882-1.102c1.027-0.811,1.627-1.75,1.627-2.574c0-1.535-1.627-3.551-4.282-5.518
		c-20.103-14.236-32.25-31.508-32.25-45.762c0-4.186,0.957-6.098,3.016-6.098l3.963,0.378c2.921,0.606,6.396,1.096,7.535,1.096
		c2.93,0,4.916-1.646,4.916-4.156c0-1.528-1.985-3.512-4.935-4.966c-13.378-6.692-16.666-10.53-25.21-29.542
		c-6.546-14.591-9.941-20.656-15.564-27.897c7.005-3.361,10.806-4.363,16.674-4.363c7.344,0,11.963,4.778,17.146,17.772
		c3.26,8.208,6.811,13.737,8.866,13.737c0.961,0,1.382-1.719,1.382-6.199c0-5.311-0.772-10.758-2.216-16.093
		c-1.312-4.907-1.894-8.884-1.585-11.832l-1.086-7.519l-5.922-3.229c-5.467-2.938-9.129-10.026-9.129-17.58
		c0-3.355,0.341-6.678,1.063-9.722c0.153-0.642,1.233-4.742,3.254-12.394c2.323-8.716,3.805-17.766,3.805-22.711l-0.044-4.616
		L78.506,239.089"/>
	<path id="path1208-1-6-1" fill="#FE0000" d="M142.897,626.016
		c-11.289-1.932-13.047-2.49-25.729-8.053c-8.797-3.891-14.496-5.428-20.154-5.428c-8.487,0-15.029,2.68-22.804,9.195l4.795,3.727
		l10.775,7.506l10.236,8.064c2.589,2.096,5.776,3.227,8.992,3.227C119.534,644.254,128.393,639.453,142.897,626.016"/>
	<path id="path1212-2-1-2" fill="#FE0000" d="M281.879,640.514
		c6.196,3.848,12.434,9.396,16.103,14.471c5.134,6.988,5.854,7.533,10.968,7.533c2.107,0,4.79-0.352,7.817-1.129l4.841-1.033
		c9.122-1.729,11.902-3.074,11.902-5.508c0-1.51-0.843-2.965-2.25-4.189l-6.447-5.316l-5.881-5.412
		c-3.659-3.279-11.153-5.932-16.936-5.932C295.334,633.998,289.875,635.766,281.879,640.514"/>
	<path id="path1214-7-06-7" fill="#FE0000" d="M455.747,669.469l3.204-0.545l5.384-0.543
		l4.285,0.543l2.918,0.137c5.463,0,8.261-0.572,10.5-2.326c3.354-2.502,6.741-6.557,10.229-12.336
		c1.395-2.285,2.126-4.379,2.126-6.078c0-3.604-3.338-5.727-9.194-5.727C470.464,642.594,461.425,650.821,455.747,669.469"/>
	<g>
		<path fill="#FE0000" d="M543.954,578.709c1.485,0,3.585,0.447,6.229,1.143l5.917,1.621l2.288,0.488
			c1.827,0,2.657-1.414,2.657-4.557l-0.118-1.836l-1.582-11.289c-1.694-11.709-3.623-16.186-7.105-16.186l-0.938,0.123
			l-13.943,2.641l-2.386,0.203c-16.729,0-36.519-15.9-41.66-33.457l-10.174-34.875c-3.031-10.432-12.149-21.951-25.777-32.771
			c-4.456-3.475-8.354-5.545-11.244-5.846L436.461,443c-1.772-0.195-2.95-1.254-2.95-2.639c0-2.217,1.862-3.258,5.821-3.258
			c13.635,0,28.139,2.77,47.566,9.111c17.608,5.791,27.237,7.9,35.847,7.9c26.889,0,43.052-14.008,43.052-37.219
			c0-11.65-4.229-26.282-10.214-35.604c-5.241-8.037-14.06-16.315-25.263-23.588c-1.673-1.099-3.115-1.684-4.221-1.684
			c-1.518,0-2.742,1.188-2.742,2.72l0.537,6.978l0.033,0.636c0,2.623-1.531,4.777-3.427,4.777c-2.959,0-6.067-3.491-9.453-10.745
			c-9.896-20.957-25.85-33.622-42.244-33.622c-3.59,0-5.649,1.257-5.649,3.457c0,1.646,0.998,4.112,2.788,7.09
			c1.741,2.69,3.338,5.972,4.847,9.646c0.844,2.092,1.301,3.667,1.301,4.601c0,0.983-0.864,1.536-2.461,1.536
			c-2.408,0-6.353-2.192-9.04-5.04c-5.358-5.688-8.037-8.566-8.072-8.595l-6.956-10.758c-5.428-8.296-11.362-13.536-21.427-18.753
			l-13.486-6.985c-2.672-1.397-5.047-2.176-6.848-2.176c-1.677,0-2.511,0.836-2.511,2.458c0,1.684,0.824,3.829,2.427,6.163
			c2.842,4.208,4.945,8.729,4.945,10.697c0,1.826-1.164,3.228-2.686,3.228c-3.771,0-10.494-6.747-19.975-19.821
			c-6.772-9.394-10.241-19.606-10.241-30.151c0-22.592,17.394-40.209,39.823-40.209c11.508,0,25.938,4.834,40.164,13.445
			l25.755,15.57c9.24,5.573,21.678,9.667,29.474,9.667c4.234,0,5.499-0.234,15.116-2.702c2.81-0.727,5.126-1.59,6.949-2.656
			c1.143-0.705,1.973-1.971,1.973-3.165c0-2.094-1.3-3.022-4.693-3.272c-11.953-0.887-36.754-10.668-53.069-20.965
			c-9.53-5.973-15.492-9.395-17.715-10.148c-4.447-1.575-7.379-3.868-7.379-5.72c0-0.818,0.906-1.281,2.304-1.281l3.131,0.539
			l23.391,8.569l22.513,8.042c11.068,3.929,28.204,7.522,36.082,7.522c10.144,0,17.219-7.037,17.219-17.232
			c0-5.125-1.294-10.935-3.394-14.934c-3.251-6.419-7.555-11.816-9.305-11.816c-2.1,0-3.23,2.113-3.23,5.728l0.22,2.863l0.672,6.897
			c0,7.236-3.977,11.943-10.142,11.943c-2.406,0-5.337-0.59-8.759-1.706l-34.913-11.241c-30.281-9.778-42.066-12.351-56.991-12.351
			c-42.145,0-73.963,28.451-73.963,66.388c0,42.758,29.365,69.583,104.681,95.66c73.083,25.323,82.589,31.135,82.589,50.391
			c0,11.062-10.368,19.926-23.347,19.926c-4.779,0-9.003-0.418-12.545-1.08c-3.175-0.645-15.342-3.484-36.531-8.561
			c-22.396-5.428-41.381-7.551-66.721-7.551c-53.198,0-78.836,8.125-106.604,33.842c-6.41,5.992-9.006,7.078-16.182,7.078
			l-3.635-0.125l-8.456-0.551c-6.441,0-11.3,3.074-15.188,9.688l-8.584,14.498c-1.179,2-3.524,3.209-6.14,3.209
			c-5.568,0-8.519-3.686-13.741-16.619c-2.713-6.871-6.4-12.4-10.703-16.15l-11.291-9.662c-1.676-1.473-2.668-2.844-2.668-3.928
			c0-1.09,0.957-2.873,2.668-5.168c1.706-2.184,3.319-4.67,4.844-7.48c1.649-3.027,2.54-5.23,2.686-6.508l0.516-4.809
			c0.413-1.564,1.978-2.666,3.838-2.666c3.569,0,4.182,2.375,4.266,15.59c0,3.379,1.438,8.316,4.267,14.461l5.885,12.885
			c0.808,1.668,2.663,2.721,4.866,2.721c5.579,0,12.604-13.062,14.464-26.865c1.54-11.426,2.762-15.076,5.129-15.076
			c2.21,0,3.182,1.383,7.764,10.766c1.413,2.904,3.623,5.668,6.45,8.062c2.597,2.193,4.847,3.535,6.395,3.791l0.602,0.02
			c4.429,0,5.908-2.773,6.946-12.951l0.509-5.342l-1.061-7.551l-0.729-5.184c0-3.459,1.206-5.527,3.177-5.527
			c1.162,0,2.6,0.76,4.021,2.141l5.351,5.393c3.554,3.598,7.216,5.381,10.807,5.381c4.594,0,7.443-2.002,7.443-5.277
			c0-2.699-0.61-3.977-5.343-11.922c-0.495-0.766-1.747-3.094-3.767-6.955c-4.774-9.07-7.002-11.304-11.216-11.304l-5.434,0.521
			l-6.986,2.676c-2.069,0.812-3.503,1.243-4.265,1.243c-0.915,0-1.646-0.928-1.646-2.168c0-4.841,3.178-12.467,9.139-21.81
			c3.67-5.825,6.766-20.24,9.087-42.156l2.736-25.201c1.62-15.483,3.311-20.983,6.436-20.983c1.133,0,2.028,0.478,2.149,1.14
			l1.583,8.032v6.442c0,7.836,0.846,14.174,1.833,14.174c2.274,0,5.615-2.66,8.895-7.21c2.326-3.257,4.134-6.853,5.378-10.729
			c1.769-5.755,2.688-10.48,2.688-14.068c0-12.407-5.223-17.74-22.023-22.439c-1.694-0.484-2.812-1.031-3.18-1.614l-0.579-4.838
			v-9.07l-1.097-6.473l-2.083-5.367l-2.736-5.89l-4.26,2.664c-10.965,6.879-13.634,8.928-17.219,13.416
			c-4.882,6.179-6.553,7.709-8.585,7.709c-1.48,0-2.642-1.012-2.642-2.321l2.139-9.165l0.181-1.563
			c0-11.759-6.599-23.135-18.421-31.673l-3.756,4.281l-3.775,5.365l-6.422,7.541c-3.727,4.354-5.962,10.31-5.962,15.9l0.06,1.773
			l0.065,1.792c0,4.244-0.655,5.7-2.645,5.7l-1.167-0.506l-4.303-5.339l-5.356-6.45l-9.667-5.914l-4.815-3.74
			c-5.18,11.249-5.397,12.456-5.397,26.883l0.015,4.505c0,4.83-1.593,7.755-4.177,7.755c-1.261,0-3.522-0.922-6.544-2.666
			c-2.416-1.368-5.297-2.19-7.967-2.19c-7.814,0-13.553,6.632-13.553,15.694c0,9.828,2.123,16.555,8.632,27.274
			c4.202,6.97,9.775,12.614,12.319,12.614c0.302,0,0.999-4.984,1.65-11.523l-1.65-9.134l-0.348-4.081
			c0-3.465,1.224-5.616,3.242-5.616c3.024,0,4.859,3.338,6.777,12.359l4.313,19.888l4.263,25.207
			c1.181,6.793,3.362,13.977,6.472,21.459c4.227,10.114,7.284,16.405,9.106,18.765c5.947,7.672,6.644,8.696,6.644,10.397
			c0,1.326-1.104,2.497-2.345,2.497c-1.151,0-2.789-0.571-4.859-1.594c-1.854-0.964-3.96-1.738-6.425-2.155l-3.904-0.588
			c-8.9,0-10.703,7.138-10.703,42.784c0,22.217,4.61,51.838,10.317,66.199l11.274,28.439c1.775,4.463,2.722,9.006,2.722,13.342
			c0,39.254-53.084,101.98-108.963,128.883c-21.761,10.418-28.2,21.34-30.054,50.975c9.307-4.432,13.035-5.9,18.787-7.506
			c15.817-4.463,19.216-6.705,21.438-14.008l2.148-6.979c0.952-2.951,2.952-4.422,13.977-10.174
			c4.122-2.121,7.079-4.555,8.576-6.938c2.81-4.65,4.96-6.934,6.362-6.934c1.563,0,2.36,1.047,2.36,2.773l-0.128,0.871
			l-5.935,15.344l-0.65,3.766c0,11.232,6.298,20.604,17.856,26.535c0.739-2.857,1.267-4.979,1.583-6.42
			c1.912-8.217,3.741-13.6,5.369-16.09l10.234-15.029c3.665-5.453,4.342-9.031,4.342-22.875l-0.61-16.852l-0.315-4.326
			c0-2.76,1.323-4.283,3.75-4.283c1.861,0,3.411,0.691,3.553,1.631l1.577,10.201c0.386,2.164,2.599,3.766,5.258,3.766
			c5.198,0,11.832-6.637,18.932-18.781c2.693-4.721,3.8-8.434,3.8-12.812c0-3.414-0.698-10.936-1.691-16.674l-0.225-3.182
			c0-2.668,1.576-4.355,4.085-4.355c1.351,0,2.416,0.422,2.599,1.037l3.767,12.375c1.253,4.121,4.107,6.963,7.037,6.963
			c8.238,0,16.759-16.838,17.637-34.859c0.535-11.342,1.956-15.271,5.408-15.271c1.324,0,2.365,0.502,2.655,1.33l2.123,6.951
			c0.796,2.543,2.333,4.256,3.846,4.256c1.36,0,4.082-2.393,7.456-6.418c1.86-2.312,3.508-4.596,4.833-6.963
			c1.035-1.891,1.587-3.822,1.587-5.658c0-2.723-0.552-3.455-4.832-6.693c-3.93-2.992-5.883-6.785-5.883-11.262
			c0-7.766,3.284-16.143,12.838-32.75c8.762-15.055,9.946-16.824,12.075-16.824c2.008,0,3.564,2,3.564,4.584
			c0,1.592-0.411,3.223-1.13,4.719c-1.441,3.129-2.194,5.264-2.194,6.434c0,2.094,1.907,3.795,4.266,3.795
			c2.6,0,5.925-1.129,9.734-3.211c2.316-1.305,7.168-3.291,14.5-5.916c9.969-3.59,16.061-5.781,18.247-6.432
			c3.356-1.062,7.185-1.66,11.035-1.66c3.087,0,6.223,0.381,9.348,1.102c6.115,1.441,10.278,2.189,12.364,2.189
			c4.869,0,8.659-3.727,8.659-8.486c0-2.135-1.456-6.195-3.32-9.291c-2.76-4.436-4.387-7.01-4.822-7.465
			c-2.357-2.484-3.288-3.844-3.288-4.838l0.584-2.17c0.677-1.328,1.832-2.154,3.024-2.154c4.235,0,12.541,8.658,20.029,20.98
			c42.092,68.713,62.482,90.42,93.422,99.777c32.229,9.793,39.804,16.592,39.804,35.824c0,10.199-5.399,22.508-16.756,38.203
			c-21.449,29.803-29.004,47.236-29.004,67.012l0.034,4.42c2.616-1.113,4.623-2.039,5.922-2.719
			c4.379-2.191,7.238-3.496,8.626-3.756l13.328-2.664c4.203-0.828,7.603-5.875,7.603-11.275l-0.076-1.033l-1.024-11.861l-0.123-1.85
			c0-6.639,3.251-12.131,7.255-12.131c1.495,0,3.201,1.375,4.107,3.252l8.608,18.225c3.478,7.465,7.569,10.988,18.775,16.115
			c-1.256-4.898-1.691-7.221-1.691-9.859l0.616-7.291c1.328-10.039,1.722-14.852,1.722-20.904c0-3.93-1.143-7.086-3.89-10.76
			l-6.447-8.594c-4.193-5.617-5.86-9.834-5.86-14.662c0-3.045,0.692-4.107,2.842-4.107l2.494,0.504
			c0.259,0.176,1.858,1.061,4.815,2.705c2.156,1.238,4.021,1.822,5.366,1.822c3.224,0,4.843-5.031,4.843-15.084
			c0-13.939-2.625-20.658-10.709-27.012l-7.511-5.875c-1.306-1.033-2.188-2.801-2.188-4.393
			C539.986,580.397,541.524,578.709,543.954,578.709z M259.892,271.304c6.867-2.495,14.271-6.53,17.711-9.641l5.882-5.428
			l0.587-0.168c1.499,0,2.668,1.744,2.668,4.014c0,6.859-6.291,17.618-13.888,30.574c-5.593,9.407-9.14,17.12-11.412,17.12
			c-2.638,0-5.233-4.088-5.853-9.08v0.001v-0.002v0.001l0.704-4.692l-4.459-9.289l-0.788-4.312
			C251.044,275.838,253.062,273.752,259.892,271.304z M201.39,270.759c-0.943-3.101-1.689-6.147-2.108-9.096l-0.117-1.542
			c0-2.718,0.956-3.885,3.24-3.885c1.429,0,4.115,1.208,5.994,2.742l14.45,11.781l9.145,4.856c2.562,1.343,4.056,3.666,4.056,6.262
			l-0.322,2.275l-2.664,9.697l-1.663,10.736c-0.154,1.276-1.345,2.189-2.8,2.189l-0.39-0.043c-2.205-0.675-7.917-3.088-11.664-7.398
			l-8.092-13.569C207.194,284.404,204.053,279.281,201.39,270.759z M219.621,351.243c-4.431-10.562-6.837-18.341-6.837-22.382
			c0-5.193,2.959-8.225,7.875-8.225c2.53,0,5.141,0.72,7.536,2.141c4.094,2.429,6.269,3.731,6.486,3.801l6.241,0.559l2.853-0.016
			l11.812-0.543l8.044-5.418l3.127-0.604c5.844,0,12.735,5.9,12.735,12.062c0,5.278-7.079,8.418-9.926,15.94l-5.937,24.185
			c-4.367,11.408-9.973,17.123-16.904,17.123c-8.087,0-14.227-6.457-20.112-21.475C223.875,361.48,221.55,355.759,219.621,351.243z"
			/>
		<path fill="#FE0000" d="M237.34,370.536c1.226,6.192,2.233,8.624,6.847,8.624c5.26,0,9.754-3.604,10.322-10.211l1.078-11.821
			c0.734-7.837,1.078-11.951,1.078-12.241c0-1.171-0.591-2.346-1.584-3.284c-0.809-0.746-1.783-1.175-2.761-1.175l-0.487,0.078
			l-8.565,1.617h-6.455c-0.974,0-1.968,0.574-2.69,1.593c-1.059,1.511-1.622,2.506-1.622,2.69l2.683,12.891L237.34,370.536z"/>
	</g>
</g>
</svg>
