<?xml version="1.0" encoding="utf-8"?>
<!-- Generator: Adobe Illustrator 16.0.0, SVG Export Plug-In . SVG Version: 6.00 Build 0)  -->
<!DOCTYPE svg PUBLIC "-//W3C//DTD SVG 1.1//EN" "http://www.w3.org/Graphics/SVG/1.1/DTD/svg11.dtd">
<svg version="1.1"
	 id="svg2" inkscape:export-xdpi="100" inkscape:export-filename="/home/pmr45/Desktop/CUKC stuff/CUKC_badge-black.png" inkscape:version="0.92.3 (unknown)" sodipodi:docname="CUKC_badge.svg" inkscape:export-ydpi="100" xmlns:dc="http://purl.org/dc/elements/1.1/" xmlns:cc="http://creativecommons.org/ns#" xmlns:rdf="http://www.w3.org/1999/02/22-rdf-syntax-ns#" xmlns:svg="http://www.w3.org/2000/svg" xmlns:sodipodi="http://sodipodi.sourceforge.net/DTD/sodipodi-0.dtd" xmlns:inkscape="http://www.inkscape.org/namespaces/inkscape"
	 xmlns="http://www.w3.org/2000/svg" xmlns:xlink="http://www.w3.org/1999/xlink" x="0px" y="0px" width="3686.848px"
	 height="622.726px" viewBox="0 146.568 3686.848 622.726" enable-background="new 0 146.568 3686.848 622.726"
	 xml:space="preserve">
<g>
	<path id="path1200-6-9-6" inkscape:connector-curvature="0" d="M502.405,471.432l2.197,8.061
		c1.959,7.248,3.354,13.002,4.312,17.191c6.746,30.643,12.437,38.68,27.343,38.68c8.482,0,15.567-4.746,17.726-11.818l3.202-10.773
		c0.747-2.475,2.592-3.889,5.095-3.889c5.854,0,8.968,6.393,9.403,19.449c0.148,4.979,1.257,13.738,3.19,26.307
		c1.47,9.016,2.154,17.326,2.154,24.807c0,5.453-0.653,8.635-3.21,15.41l1.056,6.445c1.814,10.596,2.242,14.744,2.242,19.707
		c0,23.027-1.081,29.812-6.535,38.789c2.235,8.775,2.838,12.908,2.838,19.207c0,4.064-0.553,9.859-1.735,18.879l-2.177,16.127
		l0.562,9.646c1.437,3.506,2.131,5.779,2.131,6.418c0,1.537-0.952,2.693-2.131,2.693l-10.722-4.314l-11.807-6.389
		c-3.808-2.109-6.522-4.162-12.335-9.656c-10.365,9.193-11.874,10.021-24.184,13.408c-17.775,4.91-24.372,7.129-27.882,9.656
		c-3.462,2.434-6.038,3.756-7.438,3.756c-4.162,0-7.08-8.08-7.08-19.898c0-17.193,1.027-26.031,3.774-32.709
		c-10.459-3.553-15.728-4.828-19.531-4.828c-1.434,0-2.284,0.121-7.832,1.072l-2.408,0.203c-1.565,0-2.463-1.916-2.463-5.113
		c0-5.25,3.686-15.75,8.638-24.617c6.71-11.969,17.812-21.926,26.316-23.623l19.306-3.699c11.447-2.246,18.27-8.352,18.27-16.324
		c0-7.711-5.01-12.771-16.688-16.961l-22.526-8.064c-7.586-2.705-14.776-6.105-21.486-10.213c-5.658-3.48-9.652-5.766-11.778-6.99
		c-1.961-1.033-3.98-1.592-5.857-1.592c-4.773,0-7.671,3.508-7.671,9.193c0,9.098,7.064,16.619,15.581,16.619
		c1.901,0,3.732-0.447,5.438-1.113c2.465-1.047,4.129-1.631,4.944-1.631c2.443,0,4.194,2.379,4.194,5.752
		c0,9.547-5.97,26.059-12.332,33.947l-6.456,8.105l-4.828,6.434c-1.813,13.805-15.322,33.607-28.95,42.381
		c-3.315,2.08-5.323,3.537-5.957,4.283c-0.455,0.504-1.851,3.047-4.269,7.494c-1.124,2.082-4.722,6.367-10.772,12.922
		c-4.509,4.844-8.979,9.018-13.386,12.32c-6.004,4.545-9.602,7.822-10.715,9.672l-5.389,9.139c-1.101,1.85-2.452,2.764-4.186,2.764
		c-4.822,0-9.229-4.992-11.9-13.479c-1.968-6.297-3.713-8.096-7.78-8.096c-2.103,0-5.239,0.559-9.394,1.646l-7.498,0.994h-18.815
		c-10.141,0-23.723,2.463-30.062,5.455c-2.417,1.129-4.286,1.688-5.526,1.688c-2.765,0-4.176-2.791-4.176-8.203
		c0-17.016,13.102-42.844,30.133-59.518c-2.536-9.875-7.711-16.482-14.492-18.252c-6.093-1.646-9.306-2.529-9.665-2.693
		c-0.993-0.518-1.625-1.494-1.625-2.557c0-3.43,3.813-6.787,12.367-10.84c15.235-7.195,19.699-8.594,28.213-8.594
		c9.722,0,17.929,3.289,28.104,11.258c14.544,11.332,18.543,13.48,25.556,13.48c11.457,0,22.428-10.459,22.428-21.49
		c0-7.412-4.103-15.641-14.167-28.508c-14.294-18.238-19.333-30.139-19.333-45.588c0-10.379,2.06-16.051,11.295-31.078
		c1.442-2.436,2.246-4.422,2.246-5.768c0-2.898-4.896-5.592-10.297-5.592c-5.734,0-12.881,2.096-22.537,6.502
		c-16.144,7.414-25.76,14.336-25.76,18.51c0,1.676,0.984,3.389,2.678,4.557l5.41,3.756c0.655,0.488,1.109,1.307,1.109,2.256
		c0,0.912-1.021,2.777-2.244,4.189c-1.05,1.199-4.636,5.85-10.734,13.93c-7.485,9.982-14.637,17.475-22.459,23.609
		c-2.909,2.219-4.7,4.055-5.447,5.385l-4.259,8.094c-3.588,6.707-14.178,17.777-23.106,24.129c-4.025,2.842-6.541,4.84-7.488,5.887
		c-1.103,1.213-2.707,3.729-4.844,7.521c-5.484,9.848-14.107,21.939-19.81,27.896l-14.5,15.027
		c-4.172,4.26-10.005,16.689-15.574,33.229c-4.409,13.016-7.234,18.877-9.229,18.877c-0.891,0-2.407-1.223-4.175-3.32
		c-10.425-11.883-19.775-19.322-24.35-19.322c-1.188,0-3.294,0.99-6.269,2.719c-4.119,2.475-8.994,4.324-14.459,5.398l-19.332,3.699
		c-16.138,3.17-22.601,6.596-30.041,16.117c-1.875,2.393-3.447,3.729-4.275,3.729c-1.899,0-3.306-2.75-3.306-6.504l0.546-4.719
		c0.153-0.516,1.05-5.346,2.739-14.482c2.767-15.277,6.667-27.938,10.727-34.887l9.678-16.648c1.72-3.008,2.677-6.053,2.677-8.676
		c0-12.35-11.531-22.402-29.004-25.162c-3.547-0.52-5.39-1.84-5.39-3.877c0-2.477,4.206-7.197,10.784-12.188
		c11.397-8.609,23.913-13.953,32.793-13.953c5.957,0,13.976,2.135,24.616,6.391l11.792,4.842c4.379,1.836,8.459,2.775,11.971,2.775
		c12.488,0,24.585-11.398,39.548-37.035c6.749-11.709,9.671-20.02,9.671-27.623c0-13.629-6.312-21.791-16.909-21.791
		c-8.291,0-16.25,3.537-22.814,10.135c-5.854,5.945-8.903,11.875-8.903,17.164l0.289,5.441l0.228,2.869
		c0,4.326-1.466,6.27-4.674,6.27c-4.048,0-8.795-3.945-18.051-15.055c-3.838-4.625-8.853-10.475-15.035-17.695
		c-16.322-19.07-19.702-26.713-20.397-46.176c-18.209-23.217-22.708-36.094-22.708-49.541l0.699-11.08
		c-13.046-15.668-15.575-21.703-15.575-37.145c0-6.949,0.411-8.762,3.248-14.338c-6.417-9.421-8.465-13.631-10.181-20.924
		l-2.688-11.319c-1.86-7.665-4.681-14.22-8.593-19.851c-4.832-6.912-5.403-7.933-5.403-9.956c0-5.606,5.371-9.197,18.828-12.547
		l4.284-1.097c-0.74-5.212-1.09-9.227-1.09-11.903c0-3.101,0.385-6.144,1.619-12.788l3.754-19.882
		c1.438-7.724,2.194-13.631,2.194-17.6c0-4.583-0.715-8.28-3.266-16.697c-1.65-5.483-3.484-9.625-5.359-12.362
		c-2.07-2.959-3.232-5.447-3.232-7.068c0-1.841,1.84-3.242,4.26-3.242c1.311,0,3.581,0.682,5.403,1.741
		c18.111,9.875,37.93,25.556,52.042,41.325c12.137,13.469,16.039,24.723,18.806,54.761c16.459,12.191,22.587,23.294,22.587,40.716
		c0,10.329-3.373,20.312-10.784,31.694c-6.567,10.053-10.129,15.575-10.72,16.655c-3.203,5.361-4.866,11.637-4.866,18.154
		c0,9.678,2.938,18.809,10.214,31.703c8.008,14.223,15.193,20.424,23.74,20.424c14.06,0,26.806-24.311,26.806-51.08l-0.104-5.279
		v-14.493l1.622-12.841l1.062-15.568l1.044-12.918l0.435-7.175c0-5.281-1.1-6.81-17.609-24.463
		c-18.2-19.521-26.82-35.981-26.82-51.258c0-14.444,12.403-26.511,27.291-26.511c3.122,0,5.91,0.534,11.344,2.1v-6.422l0.552-11.316
		l3.214-13.912c2.571-11.135,3.754-13.156,7.587-13.156l2.631,0.829l9.684,8.559l11.75,7.535l3.249,3.21
		c0.763-6.71,1.356-8.034,6.967-15.06c2.784-3.473,5.291-6.89,7.49-10.166l5.363-8.026l3.243-4.844
		c2.161-3.228,3.081-4.077,4.462-4.077c1.46,0,2.463,1.856,4.128,7.856c0.694,2.421,2.372,4.856,4.812,6.965l7.007,5.885
		c5.651,4.791,9.419,11.855,11.778,22.012c4.249-5.299,6.306-7.197,10.725-9.684l8.601-4.815c3.17-1.822,5.114-2.722,5.689-2.722
		c0.55,0,1.494,1.293,2.379,3.224c1.249,2.812,2.658,5.535,4.315,8.062c6.922,11.124,7.491,12.708,7.491,20.248l-0.028,4.457v6.441
		c17.425,4.799,24.195,14.17,24.195,33.437c0,14.428-6.592,29.319-20.433,45.967c-9.157,11.028-10.728,14.45-10.728,22.755
		c0,37.854,28.517,60.772,76.732,61.489l35.409,0.541c23.156,0.357,37.281,2.709,58.505,9.646
		c24.836,8.154,32.927,10.23,40.477,10.23c5.463,0,9.991-3.068,9.991-6.697c0-7.766-13.003-13.764-56.365-26.053
		c-88.384-24.969-126.112-60.732-126.112-119.292c0-45.358,37.842-80.366,86.802-80.366c15.423,0,39.523,4.114,53.272,9.132
		l21.966,8.063c4.031,1.482,7.931,2.264,11.534,2.264c7.604,0,10.46-4.75,11.568-18.906c0.49-6.313,2.535-9.101,6.548-9.101
		c5.64,0,16.625,8.829,24.541,19.862c8.205,11.307,14.005,26.245,14.005,35.971c0,11.449-5.978,20.137-18.824,27.356
		c-12.023,18.352-26.834,26.802-46.769,26.802c-15.288,0-41.229-10.339-73.917-29.485c-12.916-7.527-18.565-9.636-25.7-9.636
		c-9.662,0-15.872,5.394-15.872,13.919c0,7.771,5.72,12.587,21.673,18.225c25.398,9.059,30.854,12.012,38.116,20.968
		c27.346,4.731,39.216,9.474,56.366,22.506c48.978,15.71,76.209,45.973,76.209,84.683c0,35.277-23.884,60.734-57.15,60.734
		c-8.85,0-13.433-0.521-26.104-3.223"/>
	<path id="path1210-5-4-5" inkscape:connector-curvature="0" fill="#FE0000" d="M349.498,723.696
		c3.006-6.678,4.366-8.502,10.74-13.996c15.006-12.838,21.997-22.428,21.997-30.031v-11.846c0-6.854,1.157-9.098,4.729-9.098
		c1.615,0,2.91,0.609,3.345,1.631l2.677,6.379c0.585,1.482,2.354,2.408,4.51,2.408c3.842,0,6.565-2.734,13.181-13.629
		c2.82-4.611,3.938-7.604,3.938-10.635c0-1.932-0.444-3.957-1.296-6.037c-0.391-1.035-1.629-3.852-3.731-8.543
		c-1.21-2.789-2.203-6.475-2.203-8.406c0-3.537,1.803-5.59,4.814-5.59c1.605,0,3.039,0.625,3.882,1.66l4.252,5.344
		c0.96,1.129,1.197,1.85,2.823,1.85c1.981,0,5.5-1.85,6.851-4.502l4.289-8.596c1.105-2.119,1.655-3.863,1.655-4.879
		c0-1.84-1.724-3.648-4.352-4.789l-7.508-3.266c-8.805-3.74-16.114-18.852-16.114-33.254c0-1.592,0.582-3.959,1.61-6.963l3.25-9.129
		c1.062-3.002,1.6-6.037,1.6-8.92c0-5.264-1.635-10.336-5.354-16.281c-3.707-6.023-5.866-9.738-6.468-11.273
		c-3.075-8-4.957-10.637-7.595-10.637c-1.904,0-3.699,0.693-6.86,2.557l-5.361,3.264l-7.554,8.598l-7.521,3.727
		c-4.494,2.27-8.772,11.953-8.772,20.088c0,11.562,2.544,17.885,20.047,49.182c7.42,13.23,10.922,23.039,10.922,30.535
		c0,21.84-22.293,39.82-58.661,47.205c-43.485,8.963-52.959,16.105-57.964,44.053c7.521-3.875,10.508-4.432,23.786-4.432
		l7.866,0.096h1.247c7.178,0,8.144-0.504,12.738-6.979c5.25-7.412,10.473-11.807,17.699-14.977l8.583-3.791l6.976-3.756l2.149-0.545
		c1.931,0,2.98,0.777,2.98,2.258c0,1.811-1.774,4.898-5.129,9.061c-5.2,6.268-8.2,12.742-8.2,17.666
		C343.989,713.645,345.181,717.278,349.498,723.696"/>
	<path id="path1204-2-0-2" inkscape:connector-curvature="0" fill="#FE0000" d="M115.552,338.36L115,346.957l-0.158,5.24
		c0,8.712,1.36,12.476,4.626,12.476c3.564,0,9.129-6.667,11.643-13.976c1.532-4.538,2.748-10.863,2.748-14.531
		c0-2.594-0.668-4.983-2.748-10.166c-2.421-5.873-4.899-8.588-7.887-8.588C118.62,317.412,116.499,323.315,115.552,338.36"/>
	<path id="path1206-9-3-9" inkscape:connector-curvature="0" fill="#FE0000" d="M78.506,239.089l7.538,7.504
		c10.971,10.987,18.496,33.344,18.496,54.95l-0.262,8.907l-1.605,25.207l-0.55,21.106c0,70.119,20.405,117.927,50.394,117.927
		c7.524,0,16.784-6.924,23.133-17.203c1.387-2.229,3.182-3.875,4.295-3.875c1.675,0,2.535,1.439,2.668,4.432l1.103,11.807
		l1.019,10.16c0.56,4.787,1.063,8.553,1.638,11.301c1.053,5.182,1.622,8.705,1.622,10.527c0,5.414-1.097,5.998-13.966,7.727
		c-4.82,0.596-9.949,2.623-15.018,5.889c-8.322,5.359-13.168,9.059-13.935,10.715l-5.925,12.406
		c-0.781,1.551-2.089,2.652-3.417,2.652c-3.137,0-7.322-4.762-13.247-15.059c-5.439-9.438-7.876-14.891-7.876-17.447
		c0-1.742,1.345-2.42,4.668-2.42h1.1l6.433,0.543l4.814-0.543l4.334-0.492c1.843-0.422,3.19-2.025,3.19-3.971
		c0-1.307-0.86-2.516-2.154-2.992l-24.159-10.242c-5.79-2.447-11.991-8.691-17.687-17.666c-6.182-9.912-9.792-18.506-9.792-23.377
		c0-3.826,1.651-6.277,4.206-6.277c1.022,0,2.409,0.357,3.957,1.211c2.677,1.277,5.15,2.156,6.269,2.156
		c0.909,0,1.93-0.412,2.882-1.102c1.027-0.811,1.627-1.75,1.627-2.574c0-1.535-1.627-3.551-4.282-5.518
		c-20.103-14.236-32.25-31.508-32.25-45.762c0-4.186,0.957-6.098,3.016-6.098l3.963,0.378c2.921,0.606,6.396,1.096,7.535,1.096
		c2.93,0,4.916-1.646,4.916-4.156c0-1.528-1.985-3.512-4.935-4.966c-13.378-6.692-16.666-10.53-25.21-29.542
		c-6.546-14.591-9.941-20.656-15.564-27.897c7.005-3.361,10.806-4.363,16.674-4.363c7.344,0,11.963,4.778,17.146,17.772
		c3.26,8.208,6.811,13.737,8.866,13.737c0.961,0,1.382-1.719,1.382-6.199c0-5.311-0.772-10.758-2.216-16.093
		c-1.312-4.907-1.894-8.884-1.585-11.832l-1.086-7.519l-5.922-3.229c-5.467-2.938-9.129-10.026-9.129-17.58
		c0-3.355,0.341-6.678,1.063-9.722c0.153-0.642,1.233-4.742,3.254-12.394c2.323-8.716,3.805-17.766,3.805-22.711l-0.044-4.616
		L78.506,239.089"/>
	<path id="path1208-1-6-1" inkscape:connector-curvature="0" fill="#FE0000" d="M142.897,626.016
		c-11.289-1.932-13.047-2.49-25.729-8.053c-8.797-3.891-14.496-5.428-20.154-5.428c-8.487,0-15.029,2.68-22.804,9.195l4.795,3.727
		l10.775,7.506l10.236,8.064c2.589,2.096,5.776,3.227,8.992,3.227C119.534,644.254,128.393,639.453,142.897,626.016"/>
	<path id="path1212-2-1-2" inkscape:connector-curvature="0" fill="#FE0000" d="M281.879,640.514
		c6.196,3.848,12.434,9.396,16.103,14.471c5.134,6.988,5.854,7.533,10.968,7.533c2.107,0,4.79-0.352,7.817-1.129l4.841-1.033
		c9.122-1.729,11.902-3.074,11.902-5.508c0-1.51-0.843-2.965-2.25-4.189l-6.447-5.316l-5.881-5.412
		c-3.659-3.279-11.153-5.932-16.936-5.932C295.334,633.998,289.875,635.766,281.879,640.514"/>
	<path id="path1214-7-06-7" inkscape:connector-curvature="0" fill="#FE0000" d="M455.747,669.469l3.204-0.545l5.384-0.543
		l4.285,0.543l2.918,0.137c5.463,0,8.261-0.572,10.5-2.326c3.354-2.502,6.741-6.557,10.229-12.336
		c1.395-2.285,2.126-4.379,2.126-6.078c0-3.604-3.338-5.727-9.194-5.727C470.464,642.594,461.425,650.821,455.747,669.469"/>
	<g>
		<path fill="#FE0000" d="M543.954,578.709c1.485,0,3.585,0.447,6.229,1.143l5.917,1.621l2.288,0.488
			c1.827,0,2.657-1.414,2.657-4.557l-0.118-1.836l-1.582-11.289c-1.694-11.709-3.623-16.186-7.105-16.186l-0.938,0.123
			l-13.943,2.641l-2.386,0.203c-16.729,0-36.519-15.9-41.66-33.457l-10.174-34.875c-3.031-10.432-12.149-21.951-25.777-32.771
			c-4.456-3.475-8.354-5.545-11.244-5.846L436.461,443c-1.772-0.195-2.95-1.254-2.95-2.639c0-2.217,1.862-3.258,5.821-3.258
			c13.635,0,28.139,2.77,47.566,9.111c17.608,5.791,27.237,7.9,35.847,7.9c26.889,0,43.052-14.008,43.052-37.219
			c0-11.65-4.229-26.282-10.214-35.604c-5.241-8.037-14.06-16.315-25.263-23.588c-1.673-1.099-3.115-1.684-4.221-1.684
			c-1.518,0-2.742,1.188-2.742,2.72l0.537,6.978l0.033,0.636c0,2.623-1.531,4.777-3.427,4.777c-2.959,0-6.067-3.491-9.453-10.745
			c-9.896-20.957-25.85-33.622-42.244-33.622c-3.59,0-5.649,1.257-5.649,3.457c0,1.646,0.998,4.112,2.788,7.09
			c1.741,2.69,3.338,5.972,4.847,9.646c0.844,2.092,1.301,3.667,1.301,4.601c0,0.983-0.864,1.536-2.461,1.536
			c-2.408,0-6.353-2.192-9.04-5.04c-5.358-5.688-8.037-8.566-8.072-8.595l-6.956-10.758c-5.428-8.296-11.362-13.536-21.427-18.753
			l-13.486-6.985c-2.672-1.397-5.047-2.176-6.848-2.176c-1.677,0-2.511,0.836-2.511,2.458c0,1.684,0.824,3.829,2.427,6.163
			c2.842,4.208,4.945,8.729,4.945,10.697c0,1.826-1.164,3.228-2.686,3.228c-3.771,0-10.494-6.747-19.975-19.821
			c-6.772-9.394-10.241-19.606-10.241-30.151c0-22.592,17.394-40.209,39.823-40.209c11.508,0,25.938,4.834,40.164,13.445
			l25.755,15.57c9.24,5.573,21.678,9.667,29.474,9.667c4.234,0,5.499-0.234,15.116-2.702c2.81-0.727,5.126-1.59,6.949-2.656
			c1.143-0.705,1.973-1.971,1.973-3.165c0-2.094-1.3-3.022-4.693-3.272c-11.953-0.887-36.754-10.668-53.069-20.965
			c-9.53-5.973-15.492-9.395-17.715-10.148c-4.447-1.575-7.379-3.868-7.379-5.72c0-0.818,0.906-1.281,2.304-1.281l3.131,0.539
			l23.391,8.569l22.513,8.042c11.068,3.929,28.204,7.522,36.082,7.522c10.144,0,17.219-7.037,17.219-17.232
			c0-5.125-1.294-10.935-3.394-14.934c-3.251-6.419-7.555-11.816-9.305-11.816c-2.1,0-3.23,2.113-3.23,5.728l0.22,2.863l0.672,6.897
			c0,7.236-3.977,11.943-10.142,11.943c-2.406,0-5.337-0.59-8.759-1.706l-34.913-11.241c-30.281-9.778-42.066-12.351-56.991-12.351
			c-42.145,0-73.963,28.451-73.963,66.388c0,42.758,29.365,69.583,104.681,95.66c73.083,25.323,82.589,31.135,82.589,50.391
			c0,11.062-10.368,19.926-23.347,19.926c-4.779,0-9.003-0.418-12.545-1.08c-3.175-0.645-15.342-3.484-36.531-8.561
			c-22.396-5.428-41.381-7.551-66.721-7.551c-53.198,0-78.836,8.125-106.604,33.842c-6.41,5.992-9.006,7.078-16.182,7.078
			l-3.635-0.125l-8.456-0.551c-6.441,0-11.3,3.074-15.188,9.688l-8.584,14.498c-1.179,2-3.524,3.209-6.14,3.209
			c-5.568,0-8.519-3.686-13.741-16.619c-2.713-6.871-6.4-12.4-10.703-16.15l-11.291-9.662c-1.676-1.473-2.668-2.844-2.668-3.928
			c0-1.09,0.957-2.873,2.668-5.168c1.706-2.184,3.319-4.67,4.844-7.48c1.649-3.027,2.54-5.23,2.686-6.508l0.516-4.809
			c0.413-1.564,1.978-2.666,3.838-2.666c3.569,0,4.182,2.375,4.266,15.59c0,3.379,1.438,8.316,4.267,14.461l5.885,12.885
			c0.808,1.668,2.663,2.721,4.866,2.721c5.579,0,12.604-13.062,14.464-26.865c1.54-11.426,2.762-15.076,5.129-15.076
			c2.21,0,3.182,1.383,7.764,10.766c1.413,2.904,3.623,5.668,6.45,8.062c2.597,2.193,4.847,3.535,6.395,3.791l0.602,0.02
			c4.429,0,5.908-2.773,6.946-12.951l0.509-5.342l-1.061-7.551l-0.729-5.184c0-3.459,1.206-5.527,3.177-5.527
			c1.162,0,2.6,0.76,4.021,2.141l5.351,5.393c3.554,3.598,7.216,5.381,10.807,5.381c4.594,0,7.443-2.002,7.443-5.277
			c0-2.699-0.61-3.977-5.343-11.922c-0.495-0.766-1.747-3.094-3.767-6.955c-4.774-9.07-7.002-11.304-11.216-11.304l-5.434,0.521
			l-6.986,2.676c-2.069,0.812-3.503,1.243-4.265,1.243c-0.915,0-1.646-0.928-1.646-2.168c0-4.841,3.178-12.467,9.139-21.81
			c3.67-5.825,6.766-20.24,9.087-42.156l2.736-25.201c1.62-15.483,3.311-20.983,6.436-20.983c1.133,0,2.028,0.478,2.149,1.14
			l1.583,8.032v6.442c0,7.836,0.846,14.174,1.833,14.174c2.274,0,5.615-2.66,8.895-7.21c2.326-3.257,4.134-6.853,5.378-10.729
			c1.769-5.755,2.688-10.48,2.688-14.068c0-12.407-5.223-17.74-22.023-22.439c-1.694-0.484-2.812-1.031-3.18-1.614l-0.579-4.838
			v-9.07l-1.097-6.473l-2.083-5.367l-2.736-5.89l-4.26,2.664c-10.965,6.879-13.634,8.928-17.219,13.416
			c-4.882,6.179-6.553,7.709-8.585,7.709c-1.48,0-2.642-1.012-2.642-2.321l2.139-9.165l0.181-1.563
			c0-11.759-6.599-23.135-18.421-31.673l-3.756,4.281l-3.775,5.365l-6.422,7.541c-3.727,4.354-5.962,10.31-5.962,15.9l0.06,1.773
			l0.065,1.792c0,4.244-0.655,5.7-2.645,5.7l-1.167-0.506l-4.303-5.339l-5.356-6.45l-9.667-5.914l-4.815-3.74
			c-5.18,11.249-5.397,12.456-5.397,26.883l0.015,4.505c0,4.83-1.593,7.755-4.177,7.755c-1.261,0-3.522-0.922-6.544-2.666
			c-2.416-1.368-5.297-2.19-7.967-2.19c-7.814,0-13.553,6.632-13.553,15.694c0,9.828,2.123,16.555,8.632,27.274
			c4.202,6.97,9.775,12.614,12.319,12.614c0.302,0,0.999-4.984,1.65-11.523l-1.65-9.134l-0.348-4.081
			c0-3.465,1.224-5.616,3.242-5.616c3.024,0,4.859,3.338,6.777,12.359l4.313,19.888l4.263,25.207
			c1.181,6.793,3.362,13.977,6.472,21.459c4.227,10.114,7.284,16.405,9.106,18.765c5.947,7.672,6.644,8.696,6.644,10.397
			c0,1.326-1.104,2.497-2.345,2.497c-1.151,0-2.789-0.571-4.859-1.594c-1.854-0.964-3.96-1.738-6.425-2.155l-3.904-0.588
			c-8.9,0-10.703,7.138-10.703,42.784c0,22.217,4.61,51.838,10.317,66.199l11.274,28.439c1.775,4.463,2.722,9.006,2.722,13.342
			c0,39.254-53.084,101.98-108.963,128.883c-21.761,10.418-28.2,21.34-30.054,50.975c9.307-4.432,13.035-5.9,18.787-7.506
			c15.817-4.463,19.216-6.705,21.438-14.008l2.148-6.979c0.952-2.951,2.952-4.422,13.977-10.174
			c4.122-2.121,7.079-4.555,8.576-6.938c2.81-4.65,4.96-6.934,6.362-6.934c1.563,0,2.36,1.047,2.36,2.773l-0.128,0.871
			l-5.935,15.344l-0.65,3.766c0,11.232,6.298,20.604,17.856,26.535c0.739-2.857,1.267-4.979,1.583-6.42
			c1.912-8.217,3.741-13.6,5.369-16.09l10.234-15.029c3.665-5.453,4.342-9.031,4.342-22.875l-0.61-16.852l-0.315-4.326
			c0-2.76,1.323-4.283,3.75-4.283c1.861,0,3.411,0.691,3.553,1.631l1.577,10.201c0.386,2.164,2.599,3.766,5.258,3.766
			c5.198,0,11.832-6.637,18.932-18.781c2.693-4.721,3.8-8.434,3.8-12.812c0-3.414-0.698-10.936-1.691-16.674l-0.225-3.182
			c0-2.668,1.576-4.355,4.085-4.355c1.351,0,2.416,0.422,2.599,1.037l3.767,12.375c1.253,4.121,4.107,6.963,7.037,6.963
			c8.238,0,16.759-16.838,17.637-34.859c0.535-11.342,1.956-15.271,5.408-15.271c1.324,0,2.365,0.502,2.655,1.33l2.123,6.951
			c0.796,2.543,2.333,4.256,3.846,4.256c1.36,0,4.082-2.393,7.456-6.418c1.86-2.312,3.508-4.596,4.833-6.963
			c1.035-1.891,1.587-3.822,1.587-5.658c0-2.723-0.552-3.455-4.832-6.693c-3.93-2.992-5.883-6.785-5.883-11.262
			c0-7.766,3.284-16.143,12.838-32.75c8.762-15.055,9.946-16.824,12.075-16.824c2.008,0,3.564,2,3.564,4.584
			c0,1.592-0.411,3.223-1.13,4.719c-1.441,3.129-2.194,5.264-2.194,6.434c0,2.094,1.907,3.795,4.266,3.795
			c2.6,0,5.925-1.129,9.734-3.211c2.316-1.305,7.168-3.291,14.5-5.916c9.969-3.59,16.061-5.781,18.247-6.432
			c3.356-1.062,7.185-1.66,11.035-1.66c3.087,0,6.223,0.381,9.348,1.102c6.115,1.441,10.278,2.189,12.364,2.189
			c4.869,0,8.659-3.727,8.659-8.486c0-2.135-1.456-6.195-3.32-9.291c-2.76-4.436-4.387-7.01-4.822-7.465
			c-2.357-2.484-3.288-3.844-3.288-4.838l0.584-2.17c0.677-1.328,1.832-2.154,3.024-2.154c4.235,0,12.541,8.658,20.029,20.98
			c42.092,68.713,62.482,90.42,93.422,99.777c32.229,9.793,39.804,16.592,39.804,35.824c0,10.199-5.399,22.508-16.756,38.203
			c-21.449,29.803-29.004,47.236-29.004,67.012l0.034,4.42c2.616-1.113,4.623-2.039,5.922-2.719
			c4.379-2.191,7.238-3.496,8.626-3.756l13.328-2.664c4.203-0.828,7.603-5.875,7.603-11.275l-0.076-1.033l-1.024-11.861l-0.123-1.85
			c0-6.639,3.251-12.131,7.255-12.131c1.495,0,3.201,1.375,4.107,3.252l8.608,18.225c3.478,7.465,7.569,10.988,18.775,16.115
			c-1.256-4.898-1.691-7.221-1.691-9.859l0.616-7.291c1.328-10.039,1.722-14.852,1.722-20.904c0-3.93-1.143-7.086-3.89-10.76
			l-6.447-8.594c-4.193-5.617-5.86-9.834-5.86-14.662c0-3.045,0.692-4.107,2.842-4.107l2.494,0.504
			c0.259,0.176,1.858,1.061,4.815,2.705c2.156,1.238,4.021,1.822,5.366,1.822c3.224,0,4.843-5.031,4.843-15.084
			c0-13.939-2.625-20.658-10.709-27.012l-7.511-5.875c-1.306-1.033-2.188-2.801-2.188-4.393
			C539.986,580.397,541.524,578.709,543.954,578.709z M259.892,271.304c6.867-2.495,14.271-6.53,17.711-9.641l5.882-5.428
			l0.587-0.168c1.499,0,2.668,1.744,2.668,4.014c0,6.859-6.291,17.618-13.888,30.574c-5.593,9.407-9.14,17.12-11.412,17.12
			c-2.638,0-5.233-4.088-5.853-9.08v0.001v-0.002v0.001l0.704-4.692l-4.459-9.289l-0.788-4.312
			C251.044,275.838,253.062,273.752,259.892,271.304z M201.39,270.759c-0.943-3.101-1.689-6.147-2.108-9.096l-0.117-1.542
			c0-2.718,0.956-3.885,3.24-3.885c1.429,0,4.115,1.208,5.994,2.742l14.45,11.781l9.145,4.856c2.562,1.343,4.056,3.666,4.056,6.262
			l-0.322,2.275l-2.664,9.697l-1.663,10.736c-0.154,1.276-1.345,2.189-2.8,2.189l-0.39-0.043c-2.205-0.675-7.917-3.088-11.664-7.398
			l-8.092-13.569C207.194,284.404,204.053,279.281,201.39,270.759z M219.621,351.243c-4.431-10.562-6.837-18.341-6.837-22.382
			c0-5.193,2.959-8.225,7.875-8.225c2.53,0,5.141,0.72,7.536,2.141c4.094,2.429,6.269,3.731,6.486,3.801l6.241,0.559l2.853-0.016
			l11.812-0.543l8.044-5.418l3.127-0.604c5.844,0,12.735,5.9,12.735,12.062c0,5.278-7.079,8.418-9.926,15.94l-5.937,24.185
			c-4.367,11.408-9.973,17.123-16.904,17.123c-8.087,0-14.227-6.457-20.112-21.475C223.875,361.48,221.55,355.759,219.621,351.243z"
			/>
		<path fill="#FE0000" d="M237.34,370.536c1.226,6.192,2.233,8.624,6.847,8.624c5.26,0,9.754-3.604,10.322-10.211l1.078-11.821
			c0.734-7.837,1.078-11.951,1.078-12.241c0-1.171-0.591-2.346-1.584-3.284c-0.809-0.746-1.783-1.175-2.761-1.175l-0.487,0.078
			l-8.565,1.617h-6.455c-0.974,0-1.968,0.574-2.69,1.593c-1.059,1.511-1.622,2.506-1.622,2.69l2.683,12.891L237.34,370.536z"/>
	</g>
</g>
<g>
	<path d="M936.202,188.296c8.663,2.444,13.515,3.666,14.553,3.666c2.146,0,4.184-0.593,6.109-1.778
		c1.924-1.185,3.259-3.037,3.997-5.554h4.778l2.111,51.1h-5.223c-3.037-10.146-6.998-18.33-11.885-24.55
		c-9.332-11.701-21.885-17.551-37.659-17.551c-15.923,0-28.938,6.294-39.045,18.885c-10.11,12.589-15.165,29.919-15.165,51.987
		c0,20.292,5.312,36.493,15.94,48.601c10.628,12.109,24.089,18.163,40.379,18.163c11.776,0,22.625-2.814,32.549-8.442
		c5.704-3.185,11.961-7.998,18.774-14.442l4.22,4.222c-5.035,6.369-11.292,11.96-18.773,16.774
		c-12.736,8.146-26.548,12.219-41.434,12.219c-24.439,0-43.843-7.812-58.21-23.439c-13.255-14.441-19.884-32.474-19.884-54.099
		c0-22.143,6.999-40.732,20.995-55.765c14.739-15.775,33.918-23.662,57.543-23.662C919.095,184.63,927.536,185.852,936.202,188.296z
		"/>
	<path d="M981.766,337.818v-4.222c5.852-0.66,10.237-2.86,13.163-6.603c2.925-3.741,7.942-13.982,15.047-30.716l47.396-111.647
		h4.529l56.68,128.974c3.777,8.544,6.794,13.827,9.054,15.851c2.259,2.024,6.054,3.407,11.385,4.141v4.222h-57.85v-4.222
		c6.646-0.589,10.935-1.308,12.861-2.157c1.918-0.845,2.881-2.928,2.881-6.245c0-1.105-0.369-3.059-1.109-5.86
		c-0.742-2.799-1.779-5.746-3.111-8.844l-9.102-21.885h-59.964c-5.905,14.885-9.435,23.97-10.584,27.247
		c-1.146,3.281-1.721,5.878-1.721,7.794c0,3.833,1.556,6.486,4.664,7.958c1.921,0.886,5.544,1.549,10.863,1.99v4.222H981.766z
		 M1079.749,279.386l-26.074-62.652l-26.192,62.652H1079.749z"/>
	<path d="M1145.265,333.596c9.405-0.963,15.441-3.088,18.106-6.382c2.668-3.292,4-10.935,4-22.923v-92.349
		c0-8.214-1.295-13.562-3.889-16.04c-2.591-2.478-8.479-3.94-17.662-4.385v-4.221h44.854l52.247,113.321l50.97-113.321h45.218v4.221
		c-8.441,0.593-13.885,2.129-16.328,4.607c-2.444,2.478-3.666,7.751-3.666,15.817v101.12c0,8.291,1.222,13.598,3.666,15.931
		c2.443,2.33,7.887,3.864,16.328,4.604v4.222h-63.651v-4.222c9.183-0.74,14.903-2.385,17.163-4.939
		c2.258-2.553,3.387-8.638,3.387-18.259v-102.12l-58.264,129.54h-3.109l-57.266-124.213v90.686c0,12.433,1.815,20.536,5.441,24.31
		c2.37,2.444,7.666,4.11,15.887,4.996v4.222h-53.433V333.596z"/>
	<path d="M1348.996,333.596c9.134-0.515,15.046-1.935,17.738-4.255c2.689-2.317,4.035-7.714,4.035-16.184v-101.2
		c0-8.368-1.346-13.756-4.035-16.163c-2.692-2.407-8.604-3.832-17.738-4.277v-4.221h63.709c18.199,0,32.646,2.928,43.335,8.786
		c10.695,5.857,16.04,15.934,16.04,30.239c0,10.75-3.741,18.903-11.22,24.464c-4.221,3.185-10.554,5.817-18.996,7.894
		c10.442,2.515,19.366,6.715,26.771,12.596c7.406,5.884,11.108,14.117,11.108,24.698c0,17.761-8.213,29.969-24.643,36.628
		c-8.658,3.477-19.31,5.218-31.961,5.218h-74.145V333.596z M1434.533,251.053c9.627-4.45,14.442-12.429,14.442-23.93
		c0-13.578-5.556-22.742-16.664-27.491c-6.147-2.595-15.479-3.895-27.994-3.895c-4.739,0-7.665,0.41-8.775,1.225
		c-1.111,0.818-1.665,3.042-1.665,6.677v51.417l21.661-0.333C1423.166,254.576,1429.497,253.355,1434.533,251.053z
		 M1441.865,322.821c7.851-4.518,11.775-13.183,11.775-25.994c0-12.738-4.592-21.44-13.773-26.105
		c-9.184-4.666-20.886-6.999-35.105-6.999c-3.48,0-5.685,0-6.609,0c-0.926,0-2.35-0.037-4.274-0.107v56.651
		c0,3.925,1.109,6.461,3.33,7.608c2.222,1.148,7.369,1.722,15.442,1.722C1424.277,329.597,1434.014,327.338,1441.865,322.821z"/>
	<path d="M1499.297,333.596c8.737-0.811,14.182-2.505,16.328-5.085c2.147-2.58,3.223-8.584,3.223-18.021v-98.534
		c0-7.997-1.203-13.238-3.612-15.718c-2.404-2.48-7.72-4.055-15.938-4.722v-4.221h62.984c13.108,0,24.033,1.664,32.771,4.993
		c16.588,6.286,24.882,17.857,24.882,34.717c0,11.316-3.685,20.005-11.052,26.071c-7.369,6.063-17.385,10.057-30.051,11.979
		l46.881,57.74c2.887,3.527,5.776,6.101,8.662,7.714c2.889,1.617,6.592,2.644,11.11,3.085v4.222h-36.641l-56.907-70.096
		l-9.984,0.556v44.839c0,8.414,1.277,13.746,3.833,15.996c2.555,2.252,8.126,3.745,16.718,4.483v4.222h-63.207V333.596z
		 M1577.056,254.725c12.072-4.952,18.107-14.265,18.107-27.941c0-13.158-5.405-22.137-16.219-26.941
		c-5.777-2.586-13.442-3.883-22.995-3.883c-6.443,0-10.386,0.463-11.83,1.385c-1.445,0.926-2.166,3.09-2.166,6.49v56
		C1558.321,259.242,1570.022,257.539,1577.056,254.725z"/>
	<path d="M1652.152,333.596c9.257-0.664,15.254-2.042,17.995-4.144c2.739-2.099,4.109-7.529,4.109-16.296v-101.2
		c0-8.368-1.37-13.756-4.109-16.163c-2.741-2.407-8.738-3.832-17.995-4.277v-4.221h67.317v4.221
		c-9.258,0.445-15.257,1.871-17.996,4.277c-2.741,2.407-4.109,7.794-4.109,16.163v101.2c0,8.767,1.368,14.197,4.109,16.296
		c2.739,2.102,8.738,3.48,17.996,4.144v4.222h-67.317V333.596z"/>
	<path d="M1727.911,333.596c8.294-0.883,13.7-2.375,16.219-4.474c2.518-2.099,3.776-7.421,3.776-15.966v-101.2
		c0-8.294-1.221-13.626-3.666-15.997c-2.443-2.37-7.887-3.851-16.329-4.443v-4.221h61.32c20.661,0,38.138,3.407,52.433,10.221
		c25.771,12.219,38.657,34.065,38.657,65.54c0,11.332-2.315,22.106-6.942,32.326c-4.629,10.22-11.609,18.848-20.94,25.883
		c-5.926,4.444-12.072,7.813-18.44,10.109c-11.627,4.295-25.921,6.444-42.88,6.444h-63.207V333.596z M1773.735,327.594
		c1.812,1.188,5.571,1.781,11.275,1.781c17.772,0,32.4-3.521,43.879-10.562c17.624-10.818,26.438-29.314,26.438-55.479
		c0-23.346-7.257-40.914-21.771-52.698c-12.442-10.078-28.921-15.12-49.435-15.12c-5.109,0-8.573,0.559-10.386,1.669
		c-1.814,1.11-2.723,3.558-2.723,7.335V320.26C1771.012,323.966,1771.92,326.41,1773.735,327.594z"/>
	<path d="M1998.739,188.296c8.516,2.444,13.404,3.666,14.664,3.666c3.258,0,5.57-0.63,6.941-1.889
		c1.371-1.259,2.537-3.072,3.5-5.443h4.999l1.778,47.877h-5.222c-4.666-11.035-9.479-19.254-14.441-24.661
		c-8.962-9.479-20.626-14.218-34.992-14.218c-14.589,0-27.42,5.536-38.492,16.607c-11.07,11.072-16.607,29.309-16.607,54.709
		c0,20.959,5.519,37.326,16.552,49.1c11.034,11.775,24.664,17.663,40.881,17.663c2.739,0,5.961-0.259,9.664-0.774
		c3.703-0.519,7.22-1.331,10.553-2.441c5.406-1.771,8.777-3.305,10.109-4.598c1.333-1.293,2-3.197,2-5.708v-36.245
		c0-8.785-1.241-14.259-3.722-16.419c-2.481-2.157-7.905-3.499-16.275-4.021v-4.221h57.988v4.221
		c-5.628,0.37-9.368,1.296-11.22,2.777c-3.111,2.37-4.667,7.257-4.667,14.663v44.767c0,2.667-6.534,6.221-19.605,10.665
		c-13.07,4.443-25.643,6.664-37.714,6.664c-22.217,0-40.953-6.479-56.21-19.439c-16.811-14.292-25.217-33.473-25.217-57.542
		c0-21.181,6.704-39.325,20.108-54.432c14.735-16.663,34.288-24.994,58.652-24.994
		C1981.557,184.63,1990.222,185.852,1998.739,188.296z"/>
	<path d="M2055.392,333.596c8.368-0.883,13.794-2.375,16.276-4.474c2.479-2.099,3.72-7.421,3.72-15.966v-101.2
		c0-8.072-1.223-13.348-3.667-15.829c-2.443-2.482-7.885-4.018-16.329-4.611v-4.221h120.861l0.779,32.548h-5.778
		c-1.926-10.025-4.814-16.511-8.664-19.461c-3.851-2.947-12.441-4.422-25.772-4.422h-30.974c-3.339,0-5.4,0.538-6.179,1.611
		c-0.783,1.074-1.173,3.092-1.173,6.054v50.767h35.105c9.701,0,15.884-1.436,18.55-4.312c2.667-2.873,4.813-8.692,6.443-17.461h5.33
		v52.543h-5.33c-1.703-8.812-3.888-14.645-6.553-17.497c-2.668-2.851-8.814-4.276-18.44-4.276h-35.105v56.321
		c0,4.518,1.426,7.183,4.283,7.998c2.853,0.815,11.406,1.222,25.644,1.222c15.43,0,26.813-1.684,34.152-5.054
		c7.344-3.37,13.942-11.535,19.793-24.495h6.33l-10.329,38.437h-122.974V333.596z"/>
	<path d="M2316.333,187.296v4.221c-8.737,0.593-14.405,2.056-16.995,4.388c-2.593,2.333-3.89,7.684-3.89,16.052v72.762
		c0,11.923,1.63,21.217,4.888,27.882c6.074,12.146,17.588,18.218,34.549,18.218c18.588,0,31.067-6.221,37.435-18.663
		c3.556-6.961,5.333-17.699,5.333-32.214v-59.209c0-12.367-1.48-20.125-4.443-23.272c-2.963-3.148-8.591-5.128-16.887-5.944v-4.221
		h52.656v4.221c-8.812,0.963-14.57,3.092-17.272,6.388c-2.704,3.295-4.057,10.905-4.057,22.828v59.209
		c0,15.7-2.406,27.957-7.22,36.769c-8.887,16.219-25.772,24.327-50.655,24.327c-24.587,0-41.324-7.997-50.211-23.994
		c-4.814-8.59-7.22-19.921-7.22-33.992v-71.095c0-8.294-1.279-13.608-3.832-15.94c-2.557-2.333-8.128-3.833-16.719-4.5v-4.221
		H2316.333z"/>
	<path d="M2415.532,333.596c9.405-0.963,15.442-3.088,18.108-6.382c2.664-3.292,3.998-10.935,3.998-22.923v-100.23l-3.111-3.663
		c-3.332-3.922-6.165-6.344-8.497-7.27s-5.832-1.462-10.498-1.611v-4.221h38.819l87.818,108.852v-75.604
		c0-12.435-1.852-20.529-5.554-24.281c-2.444-2.426-7.851-4.012-16.218-4.747v-4.221h53.431v4.221
		c-8.663,0.889-14.439,3-17.328,6.333c-2.889,3.332-4.333,10.96-4.333,22.883v119.751h-3.888l-100.644-124.75v88.563
		c0,12.432,1.813,20.532,5.442,24.306c2.371,2.44,7.666,4.107,15.885,4.992v4.222h-53.432V333.596z"/>
	<path d="M2580.94,333.596c9.259-0.664,15.256-2.042,17.996-4.144c2.74-2.099,4.109-7.529,4.109-16.296v-101.2
		c0-8.368-1.369-13.756-4.109-16.163s-8.737-3.832-17.996-4.277v-4.221h67.318v4.221c-9.257,0.445-15.256,1.871-17.996,4.277
		s-4.109,7.794-4.109,16.163v101.2c0,8.767,1.369,14.197,4.109,16.296c2.74,2.102,8.739,3.48,17.996,4.144v4.222h-67.318V333.596z"
		/>
	<path d="M2717.242,187.296v3.889c-5.69,0.076-9.572,0.451-11.639,1.129c-3.629,1.204-5.438,3.647-5.438,7.335
		c0,1.879,0.649,4.514,1.945,7.899c1.294,3.386,3.709,9.002,7.238,16.854l35.608,79.201l32.326-85.736
		c1.426-3.793,2.512-7.001,3.252-9.637c0.743-2.636,1.111-4.78,1.111-6.434c0-4.44-1.887-7.453-5.658-9.032
		c-2.222-0.905-5.881-1.428-10.979-1.58v-3.889h46.54v3.889c-4.814,0.666-8.369,1.962-10.666,3.888
		c-3.48,2.891-6.925,8.704-10.33,17.443l-50.384,127.968h-3.425l-56.222-125.046c-4.74-10.605-8.542-17.206-11.386-19.804
		c-2.857-2.596-7.018-4.08-12.498-4.45v-3.889H2717.242z"/>
	<path d="M2819.886,333.596c8.367-0.883,13.792-2.375,16.274-4.474c2.479-2.099,3.721-7.421,3.721-15.966v-101.2
		c0-8.072-1.222-13.348-3.666-15.829c-2.442-2.482-7.889-4.018-16.329-4.611v-4.221h120.861l0.778,32.548h-5.777
		c-1.924-10.025-4.813-16.511-8.664-19.461c-3.852-2.947-12.443-4.422-25.771-4.422h-30.976c-3.339,0-5.4,0.538-6.178,1.611
		c-0.784,1.074-1.172,3.092-1.172,6.054v50.767h35.104c9.702,0,15.884-1.436,18.552-4.312c2.665-2.873,4.812-8.692,6.442-17.461
		h5.331v52.543h-5.331c-1.704-8.812-3.89-14.645-6.555-17.497c-2.665-2.851-8.812-4.276-18.439-4.276h-35.104v56.321
		c0,4.518,1.425,7.183,4.282,7.998c2.853,0.815,11.406,1.222,25.643,1.222c15.429,0,26.814-1.684,34.152-5.054
		c7.344-3.37,13.941-11.535,19.793-24.495h6.332l-10.333,38.437h-122.971V333.596z"/>
	<path d="M2958.854,333.596c8.739-0.811,14.182-2.505,16.328-5.085c2.149-2.58,3.223-8.584,3.223-18.021v-98.534
		c0-7.997-1.203-13.238-3.61-15.718c-2.405-2.48-7.72-4.055-15.94-4.722v-4.221h62.986c13.108,0,24.032,1.664,32.77,4.993
		c16.59,6.286,24.884,17.857,24.884,34.717c0,11.316-3.684,20.005-11.054,26.071c-7.367,6.063-17.384,10.057-30.047,11.979
		l46.878,57.74c2.888,3.527,5.775,6.101,8.663,7.714c2.89,1.617,6.593,2.644,11.108,3.085v4.222h-36.639l-56.907-70.096
		l-9.984,0.556v44.839c0,8.414,1.276,13.746,3.832,15.996c2.554,2.252,8.128,3.745,16.718,4.483v4.222h-63.208V333.596z
		 M3036.615,254.725c12.07-4.952,18.108-14.265,18.108-27.941c0-13.158-5.408-22.137-16.221-26.941
		c-5.776-2.586-13.44-3.883-22.995-3.883c-6.441,0-10.386,0.463-11.829,1.385c-1.444,0.926-2.166,3.09-2.166,6.49v56
		C3017.877,259.242,3029.578,257.539,3036.615,254.725z"/>
	<path d="M3122.705,292.05c3.845,10.22,8.357,18.366,13.534,24.439c9.024,10.59,20.224,15.885,33.603,15.885
		c7.252,0,13.517-2.296,18.806-6.887c5.289-4.592,7.931-10.998,7.931-19.218c0-7.406-2.66-13.849-7.98-19.329
		c-3.475-3.481-10.793-8.702-21.95-15.663l-19.411-12.109c-5.838-3.703-10.496-7.443-13.978-11.22
		c-6.443-7.184-9.665-15.108-9.665-23.772c0-11.479,3.812-21.032,11.442-28.66c7.627-7.628,17.737-11.442,30.328-11.442
		c5.183,0,11.421,1.278,18.717,3.832c7.293,2.555,11.46,3.833,12.497,3.833c2.812,0,4.758-0.666,5.832-2
		c1.072-1.333,1.906-3.221,2.5-5.665h4.664l4.999,48.433h-5.442c-3.703-14.589-9.646-24.772-17.83-30.549
		c-8.183-5.776-16.273-8.664-24.271-8.664c-6.221,0-11.646,1.834-16.273,5.498c-4.629,3.667-6.943,8.757-6.943,15.274
		c0,5.852,1.771,10.85,5.318,14.997c3.549,4.221,9.062,8.628,16.533,13.219l19.979,12.332c12.51,7.701,21.327,14.774,26.457,21.217
		c5.053,6.516,7.584,14.219,7.584,23.105c0,11.923-4.499,21.885-13.498,29.883c-8.997,7.998-20.494,11.997-34.491,11.997
		c-7.034,0-14.385-1.333-22.051-3.999c-7.664-2.666-12.054-3.999-13.163-3.999c-2.666,0-4.462,0.814-5.388,2.444
		c-0.926,1.63-1.536,3.37-1.833,5.222h-4.998l-6.778-48.434H3122.705z"/>
	<path d="M3238.235,333.596c9.257-0.664,15.257-2.042,17.996-4.144c2.741-2.099,4.111-7.529,4.111-16.296v-101.2
		c0-8.368-1.37-13.756-4.111-16.163c-2.739-2.407-8.739-3.832-17.996-4.277v-4.221h67.319v4.221
		c-9.258,0.445-15.257,1.871-17.997,4.277c-2.739,2.407-4.11,7.794-4.11,16.163v101.2c0,8.767,1.371,14.197,4.11,16.296
		c2.74,2.102,8.739,3.48,17.997,4.144v4.222h-67.319V333.596z"/>
	<path d="M3314.773,187.296h128.638l1.223,38.658h-5.442c-2.667-12.146-6.055-20.051-10.165-23.717
		c-4.11-3.666-12.756-5.499-25.938-5.499h-12.663v116.418c0,8.767,1.368,14.197,4.109,16.296c2.739,2.102,8.738,3.48,17.996,4.144
		v4.222h-66.318v-4.222c9.627-0.734,15.626-2.32,17.996-4.754c2.369-2.432,3.555-8.548,3.555-18.351V196.739h-12.774
		c-12.591,0-21.164,1.814-25.718,5.443c-4.554,3.629-7.979,11.552-10.274,23.772h-5.555L3314.773,187.296z"/>
	<path d="M3517.949,187.296v4.221c-5.332-0.147-9.331,0.26-11.996,1.222c-2.667,0.962-4,3.037-4,6.221
		c0,0.963,0.221,2.167,0.666,3.61c0.444,1.444,1.443,3.352,3.001,5.722l33.485,49.103l32.663-49.881
		c1.328-2.147,2.198-3.925,2.607-5.332c0.406-1.407,0.61-2.444,0.61-3.11c0-3.259-1.74-5.407-5.216-6.443
		c-2.073-0.666-5.628-1.037-10.664-1.111v-4.221h49.711v4.221c-4.585,0.222-8.69,1.592-12.312,4.11
		c-5.615,3.925-11.935,11.22-18.959,21.884l-33.604,51.322v44.246c0,8.8,1.427,14.29,4.275,16.468
		c2.852,2.182,9.24,3.53,19.164,4.048v4.222h-69.429v-4.222c10.294-0.589,16.681-2.123,19.163-4.601
		c2.48-2.478,3.72-8.667,3.72-18.573v-39.479l-29.771-43.658c-10.294-15.033-17.515-24.679-21.661-28.938
		c-4.147-4.258-9.184-6.536-15.108-6.832v-4.221H3517.949z"/>
</g>
<g>
	<path d="M832.336,725.116c16.829-1.346,27.265-4.352,31.309-9.002c4.042-4.651,6.06-15.745,6.06-33.282v-179.44
		c0-14.972-2.259-24.645-6.771-29.03c-4.504-4.381-14.707-7.111-30.598-8.192v-7.678h117.759v7.678
		c-16.158,0.808-26.595,3.499-31.31,8.075c-4.717,4.576-7.066,14.265-7.066,29.062v84.788c25.475-21.718,46.299-40.193,62.479-55.44
		c28.98-27.531,43.472-45.197,43.472-52.985c0-5.504-2.462-9.132-7.381-10.882c-4.918-1.744-11.893-2.617-20.926-2.617v-7.678
		h108.381v7.678c-13.213,1.306-23.636,3.854-31.251,7.641c-7.629,3.788-18.18,12.081-31.666,24.879l-80.741,74.847l98.514,106.438
		c17.941,19.125,30.149,31.069,36.616,35.815c6.479,4.749,15.983,7.854,28.53,9.327v7.07H991.214v-7.07
		c11.454-0.404,19.192-1.312,23.235-2.729c4.048-1.418,6.065-4.218,6.065-8.407c0-2.288-1.314-5.801-3.936-10.523
		c-2.636-4.722-6.777-10.188-12.437-16.394l-79.668-86.08l-12.756,11.83v74.869c0,15.38,2.32,25.125,6.968,29.241
		c4.647,4.115,14.781,6.848,30.399,8.193v7.07h-116.75V725.116z"/>
	<path d="M1129.7,732.187v-7.675c10.634-1.199,18.612-5.203,23.938-12.006c5.315-6.81,14.437-25.422,27.348-55.854l86.177-203.008
		h8.24l103.068,234.516c6.868,15.531,12.355,25.142,16.458,28.818c4.11,3.687,11.011,6.195,20.705,7.533v7.675h-105.19v-7.675
		c12.082-1.072,19.877-2.381,23.37-3.92c3.506-1.543,5.26-5.328,5.26-11.359c0-2.007-0.682-5.557-2.025-10.648
		c-1.345-5.099-3.234-10.46-5.653-16.087l-16.563-39.791h-109.021c-10.736,27.065-17.155,43.584-19.241,49.545
		c-2.087,5.965-3.136,10.684-3.136,14.169c0,6.969,2.834,11.797,8.479,14.475c3.493,1.609,10.08,2.816,19.756,3.617v7.675H1129.7z
		 M1307.857,625.942l-47.407-113.921l-47.619,113.921H1307.857z"/>
	<path d="M1426.992,724.512c15.883-1.474,25.783-4.562,29.69-9.248c3.906-4.69,5.856-15.609,5.856-32.767V503.334
		c0-14.545-2.19-24.067-6.567-28.581c-4.376-4.511-14.033-7.374-28.979-8.584v-7.678h114.523c23.834,0,43.699,3.027,59.585,9.078
		c30.167,11.432,45.249,32.473,45.249,63.132c0,20.574-6.704,36.375-20.1,47.398c-13.399,11.03-31.612,18.285-54.638,21.786
		l85.239,104.987c5.254,6.414,10.506,11.092,15.752,14.028c5.256,2.939,11.984,4.81,20.202,5.61v7.675h-66.626l-103.475-127.451
		l-18.151,1.006v81.528c0,15.304,2.321,24.998,6.969,29.087c4.646,4.096,14.78,6.817,30.399,8.155v7.675h-114.93V724.512z
		 M1568.379,581.101c21.951-9.004,32.924-25.938,32.924-50.808c0-23.925-9.828-40.253-29.492-48.989
		c-10.498-4.702-24.439-7.058-41.804-7.058c-11.721,0-18.892,0.843-21.516,2.522c-2.629,1.681-3.938,5.612-3.938,11.793v101.829
		C1534.312,589.314,1555.585,586.22,1568.379,581.101z"/>
	<path d="M1704.361,732.187v-7.675c10.627-1.199,18.607-5.203,23.934-12.006c5.313-6.81,14.435-25.422,27.351-55.854l86.173-203.008
		h8.239l103.069,234.516c6.867,15.531,12.354,25.142,16.465,28.818c4.104,3.687,11.003,6.195,20.704,7.533v7.675h-105.198v-7.675
		c12.084-1.072,19.886-2.381,23.378-3.92c3.498-1.543,5.252-5.328,5.252-11.359c0-2.007-0.672-5.557-2.02-10.648
		c-1.351-5.099-3.232-10.46-5.657-16.087l-16.564-39.791h-109.018c-10.739,27.065-17.159,43.584-19.243,49.545
		c-2.087,5.965-3.13,10.684-3.13,14.169c0,6.969,2.825,11.797,8.473,14.475c3.494,1.609,10.085,2.816,19.758,3.617v7.675H1704.361z
		 M1882.512,625.942l-47.409-113.921l-47.618,113.921H1882.512z"/>
	<path d="M1959.228,458.491h233.898l2.222,70.292h-9.893c-4.85-22.084-11.01-36.457-18.484-43.125
		c-7.473-6.666-23.189-9.997-47.159-9.997h-23.034v211.682c0,15.938,2.493,25.819,7.473,29.635
		c4.987,3.82,15.893,6.328,32.729,7.534v7.675h-120.591v-7.675c17.509-1.338,28.413-4.218,32.721-8.646
		c4.307-4.418,6.467-15.542,6.467-33.368V475.661h-23.229c-22.896,0-38.479,3.305-46.761,9.896
		c-8.282,6.599-14.509,21.009-18.688,43.226h-10.096L1959.228,458.491z"/>
	<path d="M2208.48,724.512c15.221-1.606,25.083-4.317,29.593-8.138c4.512-3.814,6.763-13.493,6.763-29.031V503.334
		c0-14.673-2.221-24.271-6.662-28.784c-4.444-4.511-14.343-7.3-29.693-8.381v-7.678h219.765l1.415,59.184h-10.504
		c-3.505-18.229-8.758-30.023-15.757-35.386c-7.004-5.357-22.625-8.043-46.865-8.043h-56.309c-6.085,0-9.829,0.982-11.244,2.931
		c-1.424,1.951-2.129,5.625-2.129,11.009v92.308h63.826c17.645,0,28.889-2.61,33.732-7.836c4.852-5.228,8.758-15.812,11.719-31.753
		h9.689v95.539h-9.689c-3.097-16.025-7.072-26.628-11.924-31.812c-4.844-5.18-16.02-7.776-33.527-7.776h-63.826v102.406
		c0,8.214,2.592,13.06,7.783,14.544c5.195,1.485,20.737,2.219,46.63,2.219c28.05,0,48.749-3.058,62.098-9.188
		c13.354-6.126,25.352-20.974,35.991-44.539h11.512l-18.787,69.89H2208.48V724.512z"/>
	<path d="M2759.097,460.309c15.755,4.448,24.575,6.668,26.464,6.668c3.904,0,7.607-1.079,11.107-3.233
		c3.5-2.15,5.925-5.521,7.269-10.099h8.691l3.839,92.914h-9.498c-5.517-18.447-12.727-33.327-21.613-44.639
		c-16.964-21.276-39.787-31.916-68.473-31.916c-28.949,0-52.617,11.448-70.995,34.339c-18.384,22.896-27.573,54.408-27.573,94.529
		c0,36.896,9.663,66.355,28.987,88.372c19.321,22.017,43.799,33.026,73.421,33.026c21.408,0,41.139-5.117,59.185-15.354
		c10.368-5.783,21.741-14.543,34.133-26.258l7.672,7.677c-9.151,11.582-20.531,21.747-34.134,30.5
		c-23.162,14.817-48.271,22.221-75.342,22.221c-44.434,0-79.715-14.209-105.84-42.622c-24.105-26.257-36.157-59.047-36.157-98.369
		c0-40.262,12.724-74.058,38.175-101.396c26.798-28.682,61.678-43.023,104.631-43.023
		C2727.992,453.645,2743.347,455.865,2759.097,460.309z"/>
	<path d="M2840.498,724.512c15.219-1.606,25.081-4.317,29.592-8.138c4.512-3.814,6.771-13.493,6.771-29.031V503.334
		c0-14.673-2.223-24.271-6.665-28.784c-4.444-4.511-14.345-7.3-29.698-8.381v-7.678h116.752v7.678
		c-15.219,0.808-25.416,3.302-30.6,7.474c-5.19,4.171-7.781,13.13-7.781,26.865v198.754c0,4.578,0.777,8.181,2.325,10.804
		c1.558,2.627,4.957,4.279,10.215,4.952c3.104,0.403,6.368,0.676,9.806,0.809c3.443,0.136,9.882,0.198,19.318,0.198
		c36.805,0,61.684-3.024,74.624-9.085s25.482-21.542,37.615-46.461h10.516l-20.223,71.708h-222.567V724.512z"/>
	<path d="M3211.55,458.491v7.678c-15.886,1.081-26.192,3.737-30.9,7.976c-4.714,4.244-7.073,13.972-7.073,29.189v132.301
		c0,21.684,2.964,38.579,8.887,50.7c11.041,22.088,31.986,33.123,62.822,33.123c33.799,0,56.489-11.307,68.068-33.931
		c6.462-12.655,9.695-32.187,9.695-58.577V519.291c0-22.486-2.689-36.59-8.079-42.316c-5.387-5.725-15.619-9.321-30.702-10.806
		v-7.678h95.743v7.678c-16.026,1.75-26.493,5.624-31.411,11.615c-4.912,5.993-7.37,19.829-7.37,41.507V626.95
		c0,28.554-4.376,50.833-13.133,66.857c-16.157,29.49-46.859,44.234-92.103,44.234c-44.711,0-75.145-14.543-91.3-43.628
		c-8.751-15.62-13.127-36.224-13.127-61.809V503.334c0-15.077-2.326-24.744-6.974-28.984c-4.64-4.244-14.774-6.971-30.4-8.181
		v-7.678H3211.55z"/>
	<path d="M3394.551,724.512c16.621-0.937,27.363-3.515,32.258-7.737c4.888-4.215,7.333-14.029,7.333-29.432V503.334
		c0-15.218-2.445-25.014-7.333-29.389c-4.895-4.373-15.637-6.969-32.258-7.776v-7.678h115.846c33.09,0,59.355,5.327,78.797,15.975
		c19.439,10.649,29.165,28.975,29.165,54.988c0,19.544-6.802,34.371-20.401,44.479c-7.679,5.793-19.193,10.579-34.542,14.353
		c18.989,4.577,35.214,12.212,48.679,22.904c13.467,10.698,20.2,25.674,20.2,44.911c0,32.291-14.935,54.493-44.806,66.601
		c-15.736,6.325-35.114,9.485-58.122,9.485h-134.815V724.512z M3550.084,574.418c17.509-8.09,26.262-22.593,26.262-43.504
		c0-24.69-10.104-41.353-30.303-49.987c-11.179-4.723-28.145-7.084-50.903-7.084c-8.614,0-13.937,0.742-15.953,2.228
		c-2.019,1.48-3.03,5.534-3.03,12.143v93.49l39.387-0.603C3529.417,580.831,3540.926,578.604,3550.084,574.418z M3563.415,704.916
		c14.274-8.211,21.408-23.963,21.408-47.263c0-23.157-8.343-38.986-25.044-47.467c-16.699-8.482-37.973-12.726-63.826-12.726
		c-6.332,0-10.335,0-12.021,0c-1.685,0-4.275-0.069-7.775-0.198v103.01c0,7.141,2.018,11.747,6.061,13.838
		c4.035,2.089,13.397,3.13,28.073,3.13C3531.433,717.24,3549.141,713.133,3563.415,704.916z"/>
</g>
</svg>
